<?xml version="1.0" encoding="UTF-8"?>
<svg id="Ebene_1" xmlns="http://www.w3.org/2000/svg" version="1.1" viewBox="0 0 22.7 22.7">
  <!-- Generator: Adobe Illustrator 29.0.0, SVG Export Plug-In . SVG Version: 2.1.0 Build 186)  -->
  <defs>
    <style>
      .st0 {
        fill: #fff;
      }

      .st1 {
        fill: #e72700;
      }
    </style>
  </defs>
  <path class="st1" d="M18.4,22.7H4.3c-2.4,0-4.3-1.9-4.3-4.3V4.3C0,1.9,1.9,0,4.3,0h14.1C20.8,0,22.7,1.9,22.7,4.3v14.1c0,2.4-1.9,4.3-4.3,4.3Z"/>
  <path class="st0" d="M8,18v-.7h1.7V4.6h-.7c-.9,0-1.6.3-2.2.9-.5.6-1,1.6-1.4,3h-.6l.2-4.5h13.1l.2,4.5h-.6c-.4-1.4-.9-2.4-1.4-3s-1.3-.9-2.2-.9h-.8v12.7h1.7v.7h-7Z"/>
</svg>