<?xml version="1.0" encoding="UTF-8"?>
<svg id="Ebene_1" xmlns="http://www.w3.org/2000/svg" version="1.1" viewBox="0 0 22.7 22.7">
  <!-- Generator: Adobe Illustrator 29.3.0, SVG Export Plug-In . SVG Version: 2.1.0 Build 146)  -->
  <defs>
    <style>
      .st0 {
        fill: #fff;
      }

      .st1 {
        fill: #e72700;
      }

      .st2 {
        fill: none;
      }
    </style>
  </defs>
  <path class="st1" d="M19.8,22.7H2.8c-1.6,0-2.8-1.3-2.8-2.8V2.9C0,1.3,1.3,0,2.8,0h17C21.4,0,22.6,1.3,22.6,2.8v17c.1,1.6-1.2,2.9-2.8,2.9Z"/>
  <g id="Layer_2">
    <path class="st0" d="M18.5,19.8H4.1c-1.2,0-2.2-1-2.2-2.2V6c0-1.2,1-2.2,2.2-2.2h14.5c1.2,0,2.2,1,2.2,2.2v11.6c0,1.2-1,2.2-2.2,2.2ZM4.1,5.3c-.4,0-.7.3-.7.7v11.6c0,.4.3.7.7.7h14.5c.4,0,.7-.3.7-.7V6c0-.4-.3-.7-.7-.7H4.1Z"/>
    <path class="st0" d="M14.9,11.1c-1.2,0-2.2-1-2.2-2.2s1-2.2,2.2-2.2,2.2,1,2.2,2.2-1,2.2-2.2,2.2ZM14.9,8.2c-.4,0-.7.3-.7.7s.3.7.7.7.7-.3.7-.7-.3-.7-.7-.7Z"/>
    <path class="st0" d="M18.5,19.8c-.2,0-.5-.1-.6-.3l-3.1-4.7c-.2-.3-.7-.4-1-.2,0,0-.1.1-.2.2l-.2.4c-.3.3-.7.4-1,.1-.3-.2-.3-.6-.2-.9l.2-.4c.7-1,2-1.3,3-.6.2.2.4.4.6.6l3.1,4.7c.2.3.1.8-.2,1-.1,0-.3.1-.4.1Z"/>
    <path class="st0" d="M4.1,19.8c-.1,0-.3,0-.4-.1-.3-.2-.4-.7-.2-1l4.5-7c.4-.6,1.1-1,1.8-1h0c.7,0,1.4.4,1.8,1l4.7,7c.2.4,0,.8-.3,1-.3.2-.7,0-.9-.2l-4.7-7c-.1-.2-.4-.3-.6-.3h0c-.2,0-.5.1-.6.3l-4.5,7c-.1.2-.4.3-.6.3Z"/>
  </g>
  <g id="frame">
    <rect class="st2" x="-.6" y=".4" width="23.2" height="23.2"/>
  </g>
</svg>