<?xml version="1.0" encoding="UTF-8"?>
<svg id="Ebene_1" xmlns="http://www.w3.org/2000/svg" version="1.1" viewBox="0 0 22.7 22.7">
  <!-- Generator: Adobe Illustrator 29.8.2, SVG Export Plug-In . SVG Version: 2.1.1 Build 3)  -->
  <defs>
    <style>
      .st0 {
        fill: #fff;
      }

      .st1 {
        fill: #e72700;
      }
    </style>
  </defs>
  <path class="st1" d="M18.4,22.7H4.3c-2.4,0-4.3-1.9-4.3-4.3V4.3C0,1.9,1.9,0,4.3,0h14.1C20.8,0,22.7,1.9,22.7,4.3v14.1c0,2.4-1.9,4.3-4.3,4.3Z"/>
  <path class="st0" d="M11.67,3.81c1.32,0,2.55.33,3.68.99,1.13.66,2.02,1.56,2.68,2.68.66,1.13.99,2.35.99,3.68s-.33,2.55-.99,3.68c-.66,1.13-1.56,2.02-2.68,2.68-1.13.66-2.35.99-3.68.99s-2.55-.33-3.68-.99c-1.13-.66-2.02-1.56-2.68-2.68-.66-1.13-.99-2.35-.99-3.68s.33-2.55.99-3.68,1.56-2.02,2.68-2.68,2.35-.99,3.68-.99ZM15.85,15.35c.57-.55,1.01-1.19,1.3-1.91.3-.72.45-1.48.45-2.27s-.15-1.55-.45-2.27c-.3-.72-.73-1.36-1.29-1.93s-1.21-.99-1.93-1.29c-.72-.3-1.48-.44-2.27-.44s-1.55.15-2.27.44c-.72.3-1.36.73-1.93,1.29s-.99,1.21-1.29,1.93c-.3.72-.44,1.48-.44,2.27s.15,1.55.44,2.27c.3.72.73,1.36,1.29,1.93s1.21.99,1.93,1.29c.72.3,1.48.45,2.27.45s1.55-.15,2.27-.45c.72-.3,1.36-.73,1.91-1.3ZM15.05,12.12c.14,0,.25.04.33.13s.11.19.09.31c-.12.89-.52,1.63-1.2,2.22-.68.59-1.48.89-2.39.89h-.42c-.91,0-1.71-.3-2.39-.89-.68-.59-1.08-1.33-1.2-2.22-.02-.12,0-.22.09-.31s.19-.13.33-.13h6.76ZM9.3,10.22c-.26,0-.48-.09-.67-.28-.19-.19-.28-.41-.28-.67s.09-.48.28-.67.41-.28.67-.28.48.09.67.28.28.41.28.67-.09.48-.28.67c-.19.19-.41.28-.67.28ZM14.04,10.22c-.26,0-.48-.09-.67-.28-.19-.19-.28-.41-.28-.67s.09-.48.28-.67c.19-.19.41-.28.67-.28s.48.09.67.28c.19.19.28.41.28.67s-.09.48-.28.67c-.19.19-.41.28-.67.28Z"/>
</svg>