<?xml version="1.0" encoding="UTF-8"?>
<svg id="Ebene_1" xmlns="http://www.w3.org/2000/svg" version="1.1" viewBox="0 0 22.7 22.7">
  <!-- Generator: Adobe Illustrator 29.0.0, SVG Export Plug-In . SVG Version: 2.1.0 Build 186)  -->
  <defs>
    <style>
      .st0 {
        fill: #fff;
      }

      .st1 {
        fill: #e72700;
      }
    </style>
  </defs>
  <path class="st1" d="M18.4,22.7H4.3c-2.4,0-4.3-1.9-4.3-4.3V4.3C0,1.9,1.9,0,4.3,0h14.1C20.8,0,22.7,1.9,22.7,4.3v14.1c0,2.4-1.9,4.3-4.3,4.3Z"/>
  <g>
    <path class="st0" d="M2,13.2v-3.3h-.7v-.3h.7v-1.5h1.6v1.5h1v.4h-1v3.3c0,.2,0,.3,0,.4s.2.1.3.1.3-.1.4-.2.2-.3.2-.5h.3c0,.4-.2.7-.5,1s-.7.4-1.2.4-.8-.1-.9-.2-.3-.6-.3-1.1Z"/>
    <path class="st0" d="M10.3,12.7h.3c-.2.7-.5,1.1-.9,1.3s-.9.4-1.5.4-1.5-.2-2-.7-.7-1-.7-1.8.3-1.3.8-1.8,1.2-.7,1.9-.7,1.3.2,1.7.6.6.9.6,1.6h0c0,.1-3.1.1-3.1.1v1.2c0,.5,0,.8.2.9s.4.3.7.3c.5,0,.9-.1,1.2-.4s.6-.5.8-1ZM7.4,11.4h1.6v-.9c0-.3-.1-.4-.2-.6s-.4-.2-.6-.2c-.3,0-.5.1-.6.2s-.2.3-.2.5v1Z"/>
    <path class="st0" d="M11,14.3v-.4h.3c.2,0,.3,0,.5-.1s.2-.1.3-.3l1.2-1.3-1.8-2.2h-.5v-.4h3.1v.4h-.6l.9,1.2.9-.9h.1v-.2h0c0-.1-.1-.1-.1-.1h-.5v-.4h2v.4h-.3c-.2,0-.3,0-.4.1s-.2.1-.3.3l-1,1.1,2,2.5h.5v.4h-3.3v-.4h.7l-1.1-1.4-1,1.1h0q-.1.1-.1.2s0,.1.1.1h.6v.4h-2.2Z"/>
    <path class="st0" d="M18.3,13.2v-3.3h-.7v-.3h.7v-1.5h1.6v1.5h1v.4h-1v3.3c0,.2,0,.3.1.4s.2.1.3.1.3-.1.4-.2.2-.3.2-.5h.3c0,.4-.2.7-.5,1s-.7.4-1.2.4-.8-.1-.9-.2-.3-.6-.3-1.1Z"/>
  </g>
</svg>